<svg id="svg" version="1.1" xmlns="http://www.w3.org/2000/svg" xmlns:xlink="http://www.w3.org/1999/xlink" width="400" height="382.3255813953488" viewBox="0, 0, 400,382.3255813953488"><g id="svgg"><path id="path0" d="M17.591 19.391 C 15.239 20.250,14.526 23.048,16.304 24.446 L 17.312 25.239 200.382 25.239 L 383.453 25.239 384.461 24.446 C 386.096 23.160,385.808 20.661,383.911 19.680 C 382.825 19.118,19.122 18.831,17.591 19.391 M371.128 32.836 C 370.287 33.234,368.380 34.656,366.891 35.996 C 365.401 37.336,362.053 40.325,359.451 42.639 C 356.848 44.952,352.129 49.168,348.965 52.008 C 345.800 54.847,342.424 57.859,341.463 58.700 C 339.105 60.765,325.982 72.468,322.180 75.896 C 316.428 81.083,305.061 91.203,303.771 92.285 C 302.079 93.705,302.164 94.265,302.028 80.852 L 301.912 69.351 300.881 67.794 C 298.362 63.988,292.544 64.393,290.521 68.516 C 289.879 69.824,289.854 71.219,290.104 91.360 L 290.372 112.811 312.145 112.811 C 336.311 112.811,335.489 112.894,337.271 110.276 C 339.200 107.442,338.401 103.875,335.377 101.816 C 334.140 100.975,333.879 100.956,323.430 100.956 C 316.887 100.956,312.796 100.816,312.874 100.595 C 312.945 100.396,314.049 99.320,315.330 98.205 C 316.610 97.089,319.949 94.111,322.750 91.587 C 325.550 89.063,328.831 86.138,330.039 85.086 C 331.248 84.034,336.076 79.732,340.768 75.526 C 345.460 71.319,351.887 65.580,355.051 62.771 C 376.597 43.642,378.212 42.137,378.867 40.568 C 380.873 35.767,375.752 30.650,371.128 32.836 M91.969 39.163 C 84.349 40.919,77.400 46.224,74.047 52.846 C 69.470 61.884,69.474 92.490,74.053 101.512 C 84.650 122.391,117.422 119.346,123.242 96.941 C 124.954 90.353,124.946 64.161,123.231 57.501 C 119.972 44.844,105.121 36.133,91.969 39.163 M25.536 61.281 L 36.520 83.174 36.628 99.140 L 36.735 115.105 43.224 115.105 L 49.713 115.105 49.713 99.649 L 49.713 84.194 60.659 62.078 C 66.679 49.914,71.680 39.833,71.771 39.675 C 71.863 39.517,68.683 39.388,64.705 39.388 L 57.471 39.388 55.623 43.308 C 54.606 45.464,51.500 52.127,48.720 58.114 C 45.940 64.102,43.510 69.053,43.318 69.117 C 43.127 69.181,41.447 65.916,39.585 61.863 C 37.722 57.810,35.262 52.514,34.117 50.096 C 32.973 47.677,31.378 44.278,30.574 42.543 L 29.113 39.388 21.832 39.388 L 14.552 39.388 25.536 61.281 M135.072 67.591 L 135.182 95.793 136.450 98.944 C 146.115 122.938,180.768 120.927,187.440 95.985 C 187.772 94.744,187.940 86.603,188.041 66.826 L 188.183 39.388 181.293 39.388 L 174.403 39.388 174.295 66.061 L 174.187 92.734 173.123 94.902 C 167.848 105.644,151.634 103.856,148.898 92.231 C 148.498 90.532,148.385 84.522,148.381 64.723 L 148.375 39.388 141.669 39.388 L 134.962 39.388 135.072 67.591 M201.147 77.247 L 201.147 115.105 207.835 115.105 L 214.523 115.105 214.623 99.522 L 214.723 83.939 220.104 83.833 C 226.576 83.706,225.652 82.955,229.634 91.587 C 231.283 95.163,233.779 100.497,235.179 103.442 C 236.580 106.386,238.385 110.215,239.191 111.950 L 240.656 115.105 248.631 115.105 L 256.607 115.105 248.380 98.903 C 243.855 89.991,240.153 82.549,240.154 82.363 C 240.154 82.178,241.290 81.338,242.678 80.497 C 256.819 71.923,256.324 49.537,241.826 41.988 C 237.125 39.541,235.693 39.388,217.420 39.388 L 201.147 39.388 201.147 77.247 M236.388 53.392 C 242.409 57.715,240.821 68.059,233.748 70.583 C 232.712 70.952,229.844 71.099,223.423 71.111 L 214.532 71.128 214.532 61.545 L 214.532 51.961 224.629 52.080 L 234.726 52.199 236.388 53.392 M102.975 53.641 C 107.441 55.685,109.808 59.455,110.582 65.755 C 111.309 71.663,110.782 89.947,109.800 92.925 C 106.104 104.135,91.046 105.233,86.197 94.646 C 84.342 90.598,83.781 66.815,85.419 61.699 C 87.836 54.152,95.953 50.426,102.975 53.641 M143.141 130.821 C 128.370 132.542,114.710 143.620,110.396 157.377 C 106.364 170.238,107.065 212.182,111.489 222.684 C 123.130 250.322,161.575 255.342,180.294 231.669 C 187.810 222.163,188.952 216.473,188.951 188.525 C 188.950 164.533,188.052 157.445,184.303 151.816 C 183.953 151.291,183.082 149.838,182.369 148.588 C 175.395 136.375,159.042 128.969,143.141 130.821 M236.509 130.763 C 220.716 132.585,206.847 144.596,203.014 159.770 C 200.506 169.704,200.431 207.193,202.900 217.145 C 212.708 256.676,269.601 256.443,280.725 216.826 L 281.960 212.428 282.121 196.272 L 282.282 180.115 260.644 180.115 L 239.006 180.115 239.006 191.013 L 239.006 201.912 249.713 201.912 L 260.421 201.912 260.414 204.493 C 260.352 228.526,227.608 232.450,223.856 208.874 C 221.888 196.506,222.999 167.754,225.649 162.479 C 232.936 147.974,252.955 149.988,258.724 165.807 L 259.758 168.642 271.012 168.642 L 282.265 168.642 282.003 166.826 C 278.636 143.485,259.276 128.138,236.509 130.763 M329.374 130.821 C 313.802 132.635,299.906 144.531,296.174 159.241 C 293.521 169.702,293.411 206.481,296.001 217.519 C 298.589 228.553,308.125 239.339,319.312 243.887 C 343.262 253.625,370.861 238.519,374.436 213.717 C 375.150 208.761,375.174 168.427,374.465 163.617 C 371.384 142.693,351.514 128.242,329.374 130.821 M26.563 132.027 C 26.463 132.290,26.425 157.973,26.479 189.101 L 26.577 245.698 63.199 245.795 L 99.821 245.893 99.719 235.279 L 99.618 224.665 73.996 224.474 L 48.375 224.283 48.278 177.916 L 48.180 131.549 37.463 131.549 C 29.240 131.549,26.702 131.660,26.563 132.027 M151.501 152.966 C 158.571 153.988,164.109 159.303,166.243 167.113 C 167.271 170.877,167.271 206.561,166.243 210.325 C 161.835 226.462,141.983 229.938,133.119 216.125 C 128.177 208.424,128.252 168.650,133.222 161.187 C 136.731 155.918,141.914 152.956,148.184 152.635 C 148.604 152.614,150.097 152.763,151.501 152.966 M337.770 152.971 C 343.052 153.734,347.679 157.107,350.708 162.400 C 354.877 169.687,354.762 207.798,350.548 215.283 C 342.363 229.823,321.065 226.832,317.202 210.601 C 315.929 205.254,315.600 180.941,316.656 170.309 C 317.680 159.997,324.573 153.138,334.417 152.635 C 334.837 152.614,336.346 152.765,337.770 152.971 M59.277 264.189 C 55.908 265.996,55.326 271.059,58.188 273.662 C 59.972 275.283,60.379 275.335,71.485 275.335 C 77.388 275.335,82.218 275.478,82.218 275.653 C 82.218 275.828,79.508 278.474,76.195 281.532 C 72.882 284.590,69.656 287.582,69.025 288.179 C 68.394 288.776,65.468 291.496,62.524 294.224 C 48.438 307.271,40.879 314.298,38.432 316.621 C 36.960 318.019,34.465 320.348,32.887 321.797 C 17.639 335.801,17.193 336.408,19.084 340.572 C 20.139 342.894,22.013 343.918,24.839 343.713 C 27.283 343.536,27.549 343.361,32.505 338.655 C 33.872 337.357,37.400 334.070,40.344 331.351 C 43.289 328.633,46.898 325.285,48.364 323.911 C 52.858 319.704,56.670 316.159,59.277 313.761 C 60.645 312.502,64.173 309.218,67.116 306.463 C 79.890 294.505,91.583 283.748,91.808 283.748 C 92.282 283.748,92.543 288.558,92.543 297.298 C 92.543 305.715,92.585 306.231,93.403 307.854 C 95.638 312.286,101.676 312.277,103.934 307.838 L 104.808 306.119 104.594 291.778 C 104.476 283.891,104.279 274.297,104.156 270.459 L 103.932 263.480 82.266 263.480 C 61.893 263.480,60.521 263.522,59.277 264.189 M145.315 301.338 L 145.315 339.197 152.003 339.197 L 158.691 339.197 158.791 323.423 L 158.891 307.648 171.606 307.547 L 184.321 307.447 184.321 323.322 L 184.321 339.197 191.013 339.197 L 197.706 339.197 197.706 301.338 L 197.706 263.480 191.018 263.480 L 184.330 263.480 184.230 279.063 L 184.130 294.646 171.511 294.646 L 158.891 294.646 158.791 279.063 L 158.691 263.480 152.003 263.480 L 145.315 263.480 145.315 301.338 M211.855 301.338 L 211.855 339.197 235.946 339.197 L 260.038 339.197 260.038 332.696 L 260.038 326.195 242.830 326.195 L 225.621 326.195 225.621 316.826 L 225.621 307.457 240.344 307.457 L 255.067 307.457 255.067 301.147 L 255.067 294.837 240.344 294.837 L 225.621 294.837 225.621 285.660 L 225.621 276.482 242.830 276.482 L 260.038 276.482 260.038 269.981 L 260.038 263.480 235.946 263.480 L 211.855 263.480 211.855 301.338 M268.834 301.321 L 268.834 339.197 275.717 339.197 L 282.600 339.197 282.600 323.518 L 282.600 307.839 288.275 307.839 L 293.950 307.839 296.181 312.524 C 297.407 315.100,299.901 320.392,301.723 324.283 C 303.545 328.174,305.868 333.121,306.886 335.277 L 308.736 339.197 316.709 339.197 L 324.681 339.197 316.452 323.000 C 311.925 314.092,308.222 306.636,308.222 306.432 C 308.222 306.228,309.508 305.246,311.081 304.250 C 326.112 294.728,323.856 271.376,307.264 264.741 L 304.589 263.671 286.711 263.558 L 268.834 263.445 268.834 301.321 M331.931 301.341 L 331.931 339.203 355.927 339.104 L 379.924 339.006 380.028 332.604 L 380.133 326.203 362.820 326.103 L 345.507 326.004 345.404 316.730 L 345.302 307.457 360.031 307.457 L 374.761 307.457 374.761 301.152 L 374.761 294.847 360.134 294.746 L 345.507 294.646 345.507 285.660 L 345.507 276.673 362.715 276.482 L 379.924 276.291 380.028 269.885 L 380.133 263.480 356.032 263.480 L 331.931 263.480 331.931 301.341 M303.500 276.948 C 310.519 280.647,309.379 291.838,301.696 294.639 C 299.862 295.308,298.628 295.398,291.205 295.404 L 282.792 295.411 282.689 286.049 C 282.633 280.900,282.675 276.456,282.784 276.172 C 283.218 275.042,301.158 275.714,303.500 276.948 M16.304 351.462 C 14.987 352.498,14.930 354.398,16.181 355.574 L 17.067 356.405 200.431 356.405 L 383.795 356.405 384.632 355.626 C 385.467 354.847,385.765 352.851,385.176 351.969 C 384.300 350.658,385.883 350.669,200.268 350.669 L 17.312 350.669 16.304 351.462 " stroke="none" fill="#1d457c" fill-rule="evenodd"></path><path id="path1" d="M0.000 191.205 L 0.000 382.409 200.000 382.409 L 400.000 382.409 400.000 191.205 L 400.000 0.000 200.000 0.000 L 0.000 0.000 0.000 191.205 M384.963 19.970 C 386.410 21.418,386.404 23.464,384.949 24.716 L 383.893 25.624 200.135 25.527 L 16.376 25.430 15.645 24.527 C 14.835 23.527,14.693 21.777,15.326 20.594 C 16.366 18.651,4.758 18.760,201.043 18.848 L 383.921 18.929 384.963 19.970 M376.703 32.992 C 379.487 34.868,380.476 38.032,379.213 41.026 C 378.894 41.783,376.293 44.388,372.448 47.801 C 369.013 50.851,365.159 54.295,363.885 55.455 C 360.626 58.421,348.269 69.446,345.889 71.511 C 344.798 72.457,340.074 76.673,335.392 80.880 C 330.709 85.086,325.907 89.367,324.720 90.394 C 322.814 92.042,318.850 95.588,314.741 99.320 L 313.384 100.553 323.533 100.563 C 333.291 100.573,333.746 100.607,335.371 101.434 C 340.604 104.099,339.452 111.857,333.622 113.209 C 332.797 113.401,322.724 113.561,311.237 113.566 L 290.352 113.576 290.114 108.891 C 289.984 106.315,289.777 96.377,289.656 86.807 L 289.435 69.407 290.320 67.906 C 292.714 63.846,298.064 63.612,301.120 67.434 L 302.294 68.903 302.393 79.863 C 302.447 85.890,302.579 91.206,302.685 91.676 C 302.844 92.373,325.220 73.346,327.725 70.385 C 327.924 70.148,343.783 56.001,346.819 53.351 C 347.780 52.512,350.373 50.203,352.581 48.219 C 354.790 46.236,357.199 44.076,357.935 43.420 C 358.671 42.763,361.624 40.125,364.498 37.557 C 367.371 34.989,370.124 32.726,370.616 32.529 C 372.352 31.834,375.319 32.059,376.703 32.992 M104.780 39.016 C 113.401 40.963,121.701 49.239,123.943 58.126 C 124.713 61.175,124.713 93.320,123.943 96.367 C 117.884 120.370,83.277 123.149,73.052 100.454 C 70.141 93.995,69.302 67.114,71.713 57.605 C 75.149 44.057,90.038 35.687,104.780 39.016 M30.147 40.631 C 33.745 48.225,36.312 53.735,39.403 60.504 C 41.393 64.861,43.124 68.432,43.250 68.439 C 43.376 68.446,44.566 66.085,45.896 63.193 C 47.225 60.301,49.039 56.386,49.928 54.493 C 50.817 52.600,52.136 49.761,52.859 48.184 C 53.582 46.606,54.833 43.896,55.638 42.161 L 57.102 39.006 64.689 39.006 C 69.163 39.006,72.275 39.153,72.275 39.365 C 72.275 39.562,68.087 48.124,62.968 58.390 C 57.848 68.656,52.858 78.702,51.878 80.715 L 50.096 84.374 50.096 99.931 L 50.096 115.488 43.212 115.488 L 36.329 115.488 36.329 99.779 L 36.329 84.071 25.239 61.713 C 19.140 49.416,14.149 39.277,14.149 39.181 C 14.149 39.084,17.575 39.006,21.763 39.006 L 29.377 39.006 30.147 40.631 M148.846 65.296 C 148.981 95.036,148.875 93.949,151.973 97.395 C 158.314 104.448,170.038 102.333,173.297 93.549 C 174.165 91.208,174.167 91.163,174.290 65.105 L 174.413 39.006 181.487 39.006 L 188.560 39.006 188.448 67.017 L 188.337 95.029 187.256 98.088 C 178.416 123.121,142.703 122.070,135.247 96.558 C 134.497 93.993,134.458 92.738,134.326 66.444 L 134.188 39.006 141.458 39.006 L 148.727 39.006 148.846 65.296 M236.890 39.592 C 256.916 44.808,259.550 71.246,241.119 82.034 C 240.520 82.385,240.838 83.177,244.262 89.874 C 251.298 103.634,256.979 114.960,256.979 115.225 C 256.979 115.369,253.224 115.488,248.636 115.488 L 240.292 115.488 238.145 110.803 C 236.964 108.227,234.169 102.247,231.935 97.514 C 229.700 92.782,227.416 87.921,226.858 86.711 L 225.845 84.512 220.379 84.512 L 214.914 84.512 214.914 100.000 L 214.914 115.488 207.648 115.488 L 200.382 115.488 200.382 77.247 L 200.382 39.006 217.510 39.006 C 231.668 39.006,235.029 39.107,236.890 39.592 M214.914 61.767 L 214.914 71.202 223.423 71.056 C 233.085 70.891,234.699 70.498,237.236 67.691 C 240.162 64.452,240.434 58.250,237.783 55.230 C 235.512 52.644,235.277 52.595,224.570 52.457 L 214.914 52.332 214.914 61.767 M95.159 53.156 C 87.226 54.528,84.901 59.987,84.901 77.247 C 84.901 95.864,87.873 101.491,97.706 101.491 C 108.697 101.491,112.000 92.286,110.139 66.847 C 109.404 56.806,103.779 51.665,95.159 53.156 M155.112 130.603 C 172.799 133.646,186.176 146.675,188.615 163.234 C 189.323 168.041,189.301 209.629,188.589 214.149 C 182.045 255.647,120.394 258.593,109.421 217.932 C 107.738 211.693,106.912 177.785,108.167 166.407 C 110.333 146.767,123.416 133.496,143.786 130.274 C 146.153 129.900,152.014 130.070,155.112 130.603 M251.378 131.151 C 264.152 133.995,274.126 142.798,279.404 155.886 C 280.685 159.063,282.600 166.384,282.600 168.103 L 282.600 169.025 270.948 169.025 L 259.295 169.025 258.668 166.826 C 254.192 151.117,234.389 148.267,226.277 162.166 C 222.346 168.900,222.180 206.744,226.045 214.831 C 230.743 224.659,245.809 227.256,253.767 219.610 C 257.769 215.764,260.038 210.454,260.038 204.935 L 260.038 202.307 249.426 202.205 L 238.815 202.103 238.815 191.013 L 238.815 179.924 260.612 179.924 L 282.409 179.924 282.509 194.837 C 282.621 211.475,282.331 214.283,279.826 220.841 C 265.201 259.126,209.058 254.417,201.868 214.303 C 200.159 204.768,200.440 169.227,202.292 160.803 C 206.971 139.509,229.038 126.179,251.378 131.151 M341.346 130.603 C 358.366 133.531,370.988 145.270,374.437 161.377 C 376.202 169.618,376.051 208.810,374.224 216.797 C 371.755 227.588,363.753 237.769,353.785 242.801 C 331.437 254.083,303.977 243.149,296.229 219.885 C 292.557 208.856,292.777 166.445,296.560 156.195 C 301.766 142.090,313.683 132.858,330.019 130.274 C 332.386 129.900,338.247 130.070,341.346 130.603 M48.566 177.629 L 48.566 224.092 74.379 224.092 L 100.191 224.092 100.191 235.182 L 100.191 246.272 63.098 246.272 L 26.004 246.272 26.004 188.719 L 26.004 131.166 37.285 131.166 L 48.566 131.166 48.566 177.629 M143.288 153.919 C 137.545 155.498,133.081 160.368,131.367 166.922 C 130.021 172.072,129.861 203.208,131.148 209.588 C 134.542 226.417,156.790 229.648,164.239 214.395 C 166.362 210.047,166.539 208.056,166.539 188.528 C 166.538 168.837,166.369 166.999,164.175 162.825 C 160.130 155.126,151.806 151.577,143.288 153.919 M329.521 153.919 C 323.532 155.566,318.745 160.987,317.578 167.445 C 315.940 176.502,315.864 198.084,317.429 209.178 C 320.000 227.395,345.984 229.603,351.400 212.065 C 353.160 206.369,353.645 173.377,352.060 167.219 C 349.377 156.791,339.746 151.108,329.521 153.919 M104.557 263.576 C 105.076 266.141,105.138 306.390,104.625 307.569 C 102.784 311.797,97.690 312.899,94.357 309.790 C 92.330 307.899,92.197 306.985,92.177 294.742 C 92.166 287.896,92.028 284.512,91.761 284.512 C 91.379 284.512,88.125 287.463,75.526 299.237 C 72.371 302.185,67.553 306.652,64.818 309.165 C 62.084 311.677,59.761 313.832,59.656 313.953 C 59.551 314.074,56.969 316.487,53.920 319.314 C 50.870 322.141,47.170 325.595,45.698 326.991 C 28.082 343.683,26.004 345.241,22.776 344.176 C 18.804 342.865,16.875 338.758,18.563 335.202 C 19.083 334.106,23.154 330.161,35.750 318.547 C 40.730 313.955,59.468 296.559,61.759 294.400 C 62.811 293.409,64.194 292.113,64.834 291.519 C 65.473 290.925,69.500 287.170,73.782 283.174 L 81.567 275.908 70.898 275.717 C 59.391 275.511,58.529 275.359,57.181 273.302 C 54.752 269.595,55.931 265.206,59.831 263.434 C 61.271 262.780,62.845 262.731,82.880 262.724 L 104.383 262.715 104.557 263.576 M159.082 278.585 L 159.082 294.455 171.319 294.455 L 183.556 294.455 183.556 279.190 C 183.556 270.794,183.661 263.653,183.789 263.320 C 183.989 262.799,184.993 262.715,191.054 262.715 L 198.088 262.715 198.088 301.147 L 198.088 339.579 191.054 339.579 C 184.993 339.579,183.989 339.496,183.789 338.974 C 183.661 338.642,183.556 331.500,183.556 323.104 L 183.556 307.839 171.319 307.839 L 159.082 307.839 159.082 323.709 L 159.082 339.579 152.008 339.579 L 144.933 339.579 144.933 301.147 L 144.933 262.715 152.008 262.715 L 159.082 262.715 159.082 278.585 M260.421 269.790 L 260.421 276.864 243.021 276.864 L 225.621 276.864 225.621 285.660 L 225.621 294.455 240.544 294.455 L 255.467 294.455 255.363 301.052 L 255.258 307.648 240.440 307.748 L 225.621 307.848 225.621 316.635 L 225.621 325.422 242.925 325.522 L 260.229 325.621 260.334 332.600 L 260.438 339.579 235.955 339.579 L 211.472 339.579 211.472 301.402 C 211.472 280.405,211.587 263.110,211.727 262.970 C 211.867 262.830,222.881 262.715,236.201 262.715 L 260.421 262.715 260.421 269.790 M305.736 263.816 C 324.117 269.853,327.424 295.435,311.036 304.811 C 308.275 306.390,308.241 305.932,311.607 312.492 C 316.934 322.872,325.048 339.075,325.048 339.331 C 325.048 340.128,308.271 339.571,308.015 338.765 C 307.873 338.317,306.312 334.950,304.547 331.282 C 302.782 327.615,301.338 324.554,301.338 324.480 C 301.338 324.406,300.149 321.866,298.696 318.837 C 297.243 315.808,295.533 312.180,294.896 310.776 L 293.738 308.222 288.361 308.222 L 282.983 308.222 282.983 323.909 L 282.983 339.596 275.813 339.492 L 268.642 339.388 268.544 301.530 C 268.490 280.707,268.532 263.445,268.637 263.168 C 269.025 262.150,302.440 262.733,305.736 263.816 M380.410 269.885 L 380.514 276.864 363.106 276.864 L 345.698 276.864 345.698 285.660 L 345.698 294.455 360.612 294.455 L 375.526 294.455 375.526 300.915 C 375.526 306.453,375.439 307.408,374.921 307.607 C 374.588 307.735,367.877 307.839,360.007 307.839 L 345.698 307.839 345.698 316.631 L 345.698 325.422 363.002 325.522 L 380.306 325.621 380.410 332.600 L 380.514 339.579 356.032 339.579 L 331.549 339.579 331.549 301.144 L 331.549 262.709 355.927 262.808 L 380.306 262.906 380.410 269.885 M282.983 285.636 L 282.983 294.837 291.491 294.821 C 300.618 294.803,301.770 294.618,304.162 292.794 C 308.919 289.166,308.959 280.939,304.235 277.731 L 302.677 276.673 292.830 276.554 L 282.983 276.435 282.983 285.636 M384.950 351.193 C 386.427 352.463,386.427 354.611,384.950 355.881 L 383.896 356.788 200.344 356.788 L 16.791 356.788 15.853 355.849 C 15.205 355.201,14.914 354.485,14.914 353.537 C 14.914 352.589,15.205 351.874,15.853 351.225 L 16.791 350.287 200.344 350.287 L 383.896 350.287 384.950 351.193 " stroke="none" fill="#f3f3f3" fill-rule="evenodd"></path><path id="path2" d="M365.368 37.189 L 364.245 38.432 365.488 37.309 C 366.171 36.691,366.730 36.132,366.730 36.066 C 366.730 35.771,366.415 36.031,365.368 37.189 M16.826 39.268 C 22.879 39.543,29.359 39.555,29.196 39.293 C 29.098 39.135,25.715 39.039,21.679 39.081 C 17.643 39.122,15.459 39.206,16.826 39.268 M56.769 40.189 C 56.433 40.839,56.233 41.447,56.326 41.539 C 56.418 41.632,56.708 41.189,56.971 40.556 L 57.447 39.404 64.766 39.292 L 72.084 39.179 64.733 39.093 L 57.381 39.006 56.769 40.189 M134.701 65.679 L 134.794 92.352 134.895 65.879 L 134.996 39.406 141.781 39.292 L 148.566 39.178 141.587 39.092 L 134.608 39.006 134.701 65.679 M181.259 39.288 L 188.140 39.405 188.242 64.731 L 188.345 90.057 188.341 64.627 L 188.337 39.197 181.357 39.184 L 174.378 39.170 181.259 39.288 M200.859 77.151 L 200.956 115.296 207.648 115.310 L 214.340 115.323 207.744 115.205 L 201.147 115.088 201.147 77.242 L 201.147 39.396 217.304 39.292 L 233.461 39.188 217.111 39.097 L 200.761 39.006 200.859 77.151 M376.846 43.308 L 375.335 44.933 376.960 43.421 C 378.471 42.016,378.761 41.683,378.471 41.683 C 378.409 41.683,377.678 42.414,376.846 43.308 M358.485 43.308 L 357.361 44.551 358.604 43.427 C 359.288 42.810,359.847 42.250,359.847 42.185 C 359.847 41.889,359.531 42.149,358.485 43.308 M54.364 45.332 C 53.723 46.738,53.846 47.038,54.539 45.760 C 54.862 45.163,55.055 44.603,54.968 44.515 C 54.880 44.428,54.609 44.795,54.364 45.332 M116.444 46.272 C 117.479 47.323,118.413 48.184,118.518 48.184 C 118.623 48.184,117.862 47.323,116.826 46.272 C 115.790 45.220,114.857 44.359,114.752 44.359 C 114.646 44.359,115.408 45.220,116.444 46.272 M78.394 46.463 C 77.465 47.409,76.791 48.184,76.896 48.184 C 77.001 48.184,77.847 47.409,78.776 46.463 C 79.705 45.516,80.379 44.742,80.274 44.742 C 80.169 44.742,79.323 45.516,78.394 46.463 M96.661 52.667 C 97.348 52.752,98.381 52.751,98.955 52.663 C 99.530 52.576,98.967 52.506,97.706 52.509 C 96.444 52.511,95.973 52.582,96.661 52.667 M344.148 56.119 L 342.830 57.553 344.264 56.235 C 345.599 55.008,345.874 54.685,345.582 54.685 C 345.518 54.685,344.872 55.330,344.148 56.119 M252.861 58.509 C 252.861 59.245,252.940 59.546,253.036 59.178 C 253.132 58.810,253.132 58.207,253.036 57.839 C 252.940 57.471,252.861 57.772,252.861 58.509 M358.867 59.369 L 357.744 60.612 358.987 59.489 C 359.670 58.871,360.229 58.312,360.229 58.246 C 360.229 57.950,359.914 58.211,358.867 59.369 M123.989 61.568 C 123.989 62.304,124.068 62.605,124.164 62.237 C 124.260 61.869,124.260 61.267,124.164 60.899 C 124.068 60.531,123.989 60.832,123.989 61.568 M337.070 62.428 L 335.946 63.671 337.189 62.548 C 337.873 61.930,338.432 61.371,338.432 61.305 C 338.432 61.010,338.117 61.270,337.070 62.428 M354.855 63.002 L 353.537 64.436 354.971 63.118 C 356.306 61.891,356.581 61.568,356.289 61.568 C 356.225 61.568,355.580 62.213,354.855 63.002 M252.861 63.862 C 252.861 64.598,252.940 64.900,253.036 64.532 C 253.132 64.163,253.132 63.561,253.036 63.193 C 252.940 62.825,252.861 63.126,252.861 63.862 M70.855 67.495 C 70.858 68.547,70.932 68.932,71.020 68.350 C 71.108 67.769,71.106 66.909,71.015 66.438 C 70.924 65.968,70.852 66.444,70.855 67.495 M124.412 68.451 C 124.412 70.029,124.479 70.674,124.562 69.885 C 124.644 69.097,124.644 67.806,124.562 67.017 C 124.479 66.228,124.412 66.874,124.412 68.451 M84.631 68.642 C 84.633 69.904,84.704 70.375,84.790 69.687 C 84.875 69.000,84.873 67.967,84.786 67.393 C 84.698 66.818,84.629 67.380,84.631 68.642 M110.650 69.981 C 110.650 71.769,110.716 72.500,110.796 71.606 C 110.877 70.712,110.877 69.250,110.796 68.356 C 110.716 67.462,110.650 68.193,110.650 69.981 M330.186 68.547 L 329.063 69.790 330.306 68.667 C 330.989 68.049,331.549 67.489,331.549 67.424 C 331.549 67.128,331.233 67.388,330.186 68.547 M348.542 68.547 L 347.419 69.790 348.662 68.667 C 349.345 68.049,349.904 67.489,349.904 67.424 C 349.904 67.128,349.589 67.388,348.542 68.547 M301.817 70.937 C 301.822 71.778,301.900 72.077,301.991 71.602 C 302.083 71.126,302.079 70.438,301.984 70.072 C 301.888 69.706,301.813 70.096,301.817 70.937 M341.088 75.239 L 339.771 76.673 341.205 75.355 C 342.539 74.129,342.814 73.805,342.522 73.805 C 342.459 73.805,341.813 74.450,341.088 75.239 M246.633 77.533 L 245.315 78.967 246.750 77.650 C 248.084 76.423,248.359 76.099,248.067 76.099 C 248.003 76.099,247.358 76.745,246.633 77.533 M319.479 78.107 L 318.356 79.350 319.598 78.227 C 320.282 77.609,320.841 77.050,320.841 76.984 C 320.841 76.688,320.526 76.949,319.479 78.107 M337.452 78.489 L 336.329 79.732 337.572 78.609 C 338.255 77.991,338.815 77.432,338.815 77.366 C 338.815 77.071,338.499 77.331,337.452 78.489 M302.189 86.498 C 302.104 92.832,302.300 93.913,303.303 92.634 C 303.773 92.035,303.759 92.020,303.164 92.486 C 302.546 92.971,302.497 92.598,302.390 86.559 L 302.275 80.115 302.189 86.498 M110.647 84.321 C 110.649 86.004,110.716 86.645,110.797 85.745 C 110.878 84.846,110.876 83.469,110.794 82.686 C 110.712 81.903,110.646 82.639,110.647 84.321 M124.412 85.660 C 124.412 87.237,124.479 87.882,124.562 87.094 C 124.644 86.305,124.644 85.014,124.562 84.226 C 124.479 83.437,124.412 84.082,124.412 85.660 M84.631 85.851 C 84.633 87.113,84.704 87.583,84.790 86.896 C 84.875 86.208,84.873 85.176,84.786 84.601 C 84.698 84.027,84.629 84.589,84.631 85.851 M214.781 84.034 C 214.682 84.192,216.264 84.276,218.295 84.220 C 225.110 84.032,225.853 83.890,220.386 83.818 C 217.401 83.779,214.879 83.877,214.781 84.034 M70.855 86.998 C 70.858 88.050,70.932 88.435,71.020 87.853 C 71.108 87.272,71.106 86.412,71.015 85.941 C 70.924 85.471,70.852 85.946,70.855 86.998 M290.011 90.249 C 290.011 92.667,290.073 93.657,290.149 92.447 C 290.225 91.238,290.225 89.259,290.149 88.050 C 290.073 86.840,290.011 87.830,290.011 90.249 M309.154 87.285 L 308.031 88.528 309.273 87.405 C 309.957 86.787,310.516 86.228,310.516 86.162 C 310.516 85.866,310.201 86.126,309.154 87.285 M326.939 87.859 L 325.621 89.293 327.055 87.975 C 328.390 86.748,328.665 86.424,328.373 86.424 C 328.309 86.424,327.664 87.070,326.939 87.859 M228.325 89.293 C 228.325 89.503,228.571 90.105,228.872 90.631 C 229.172 91.157,229.418 91.415,229.418 91.205 C 229.418 90.994,229.172 90.392,228.872 89.866 C 228.571 89.340,228.325 89.082,228.325 89.293 M305.330 90.727 L 304.207 91.969 305.449 90.846 C 306.133 90.228,306.692 89.669,306.692 89.603 C 306.692 89.308,306.377 89.568,305.330 90.727 M123.989 92.925 C 123.989 93.662,124.068 93.963,124.164 93.595 C 124.260 93.227,124.260 92.624,124.164 92.256 C 124.068 91.888,123.989 92.189,123.989 92.925 M96.661 101.998 C 97.348 102.083,98.381 102.081,98.955 101.994 C 99.530 101.907,98.967 101.837,97.706 101.839 C 96.444 101.841,95.973 101.913,96.661 101.998 M160.523 101.998 C 161.210 102.083,162.243 102.081,162.818 101.994 C 163.392 101.907,162.830 101.837,161.568 101.839 C 160.306 101.841,159.836 101.913,160.523 101.998 M234.990 103.633 C 235.317 104.264,235.670 104.780,235.775 104.780 C 235.880 104.780,235.699 104.264,235.373 103.633 C 235.047 103.002,234.694 102.486,234.588 102.486 C 234.483 102.486,234.664 103.002,234.990 103.633 M116.635 108.031 C 115.706 108.977,115.032 109.751,115.137 109.751 C 115.242 109.751,116.088 108.977,117.017 108.031 C 117.946 107.084,118.620 106.310,118.515 106.310 C 118.410 106.310,117.564 107.084,116.635 108.031 M78.394 108.031 C 79.107 108.767,79.777 109.369,79.882 109.369 C 79.988 109.369,79.490 108.767,78.776 108.031 C 78.063 107.294,77.393 106.692,77.288 106.692 C 77.183 106.692,77.680 107.294,78.394 108.031 M301.052 113.097 C 307.098 113.156,316.993 113.156,323.040 113.097 C 329.087 113.038,324.140 112.990,312.046 112.990 C 299.952 112.990,295.005 113.038,301.052 113.097 M39.866 115.390 C 41.707 115.460,44.718 115.460,46.558 115.390 C 48.399 115.320,46.893 115.262,43.212 115.262 C 39.532 115.262,38.026 115.320,39.866 115.390 M244.455 115.391 C 246.716 115.458,250.416 115.458,252.677 115.391 C 254.938 115.323,253.088 115.268,248.566 115.268 C 244.044 115.268,242.194 115.323,244.455 115.391 M26.386 131.447 C 26.386 131.608,31.290 131.692,37.283 131.633 L 48.180 131.526 48.280 177.809 L 48.379 224.092 48.377 177.725 L 48.375 131.358 37.380 131.256 C 31.334 131.200,26.386 131.286,26.386 131.447 M165.583 134.034 C 166.109 134.335,166.711 134.581,166.922 134.581 C 167.132 134.581,166.874 134.335,166.348 134.034 C 165.822 133.734,165.220 133.488,165.010 133.488 C 164.799 133.488,165.057 133.734,165.583 134.034 M351.816 134.034 C 352.342 134.335,352.945 134.581,353.155 134.581 C 353.365 134.581,353.107 134.335,352.581 134.034 C 352.055 133.734,351.453 133.488,351.243 133.488 C 351.033 133.488,351.291 133.734,351.816 134.034 M269.216 141.300 C 270.358 142.457,271.379 143.403,271.484 143.403 C 271.590 143.403,270.741 142.457,269.598 141.300 C 268.456 140.143,267.435 139.197,267.330 139.197 C 267.225 139.197,268.074 140.143,269.216 141.300 M176.864 141.874 C 177.900 142.925,178.834 143.786,178.939 143.786 C 179.044 143.786,178.282 142.925,177.247 141.874 C 176.211 140.822,175.277 139.962,175.172 139.962 C 175.067 139.962,175.828 140.822,176.864 141.874 M212.608 142.543 L 210.134 145.124 212.715 142.650 C 214.135 141.289,215.296 140.127,215.296 140.068 C 215.296 139.787,214.907 140.145,212.608 142.543 M363.289 142.065 C 364.431 143.222,365.452 144.168,365.557 144.168 C 365.662 144.168,364.814 143.222,363.671 142.065 C 362.529 140.908,361.508 139.962,361.403 139.962 C 361.298 139.962,362.146 140.908,363.289 142.065 M305.532 142.543 L 303.442 144.742 305.641 142.652 C 306.850 141.502,307.839 140.513,307.839 140.453 C 307.839 140.169,307.474 140.500,305.532 142.543 M119.106 142.734 L 117.208 144.742 119.216 142.844 C 120.320 141.800,121.224 140.897,121.224 140.837 C 121.224 140.551,120.869 140.869,119.106 142.734 M183.748 151.052 C 184.074 151.683,184.427 152.199,184.532 152.199 C 184.637 152.199,184.456 151.683,184.130 151.052 C 183.804 150.421,183.451 149.904,183.346 149.904 C 183.240 149.904,183.421 150.421,183.748 151.052 M147.901 152.852 C 148.377 152.943,149.065 152.940,149.431 152.844 C 149.796 152.748,149.407 152.673,148.566 152.678 C 147.725 152.682,147.426 152.760,147.901 152.852 M240.822 152.851 C 241.295 152.942,242.070 152.942,242.543 152.851 C 243.016 152.760,242.629 152.685,241.683 152.685 C 240.736 152.685,240.349 152.760,240.822 152.851 M334.134 152.852 C 334.610 152.943,335.298 152.940,335.664 152.844 C 336.030 152.748,335.641 152.673,334.799 152.678 C 333.958 152.682,333.659 152.760,334.134 152.852 M188.234 164.054 C 188.234 164.790,188.313 165.091,188.409 164.723 C 188.505 164.355,188.505 163.752,188.409 163.384 C 188.313 163.016,188.234 163.317,188.234 164.054 M108.331 168.451 C 108.334 169.503,108.408 169.888,108.496 169.306 C 108.584 168.725,108.582 167.865,108.491 167.394 C 108.400 166.924,108.328 167.400,108.331 168.451 M188.624 168.069 C 188.628 168.910,188.707 169.209,188.798 168.734 C 188.890 168.258,188.886 167.570,188.790 167.204 C 188.695 166.838,188.620 167.228,188.624 168.069 M374.870 169.598 C 374.873 170.650,374.948 171.035,375.035 170.454 C 375.123 169.872,375.121 169.012,375.030 168.542 C 374.939 168.071,374.867 168.547,374.870 169.598 M201.273 173.805 C 201.274 175.277,201.344 175.833,201.426 175.039 C 201.509 174.246,201.508 173.041,201.423 172.362 C 201.339 171.684,201.271 172.333,201.273 173.805 M130.123 173.231 C 130.123 174.178,130.198 174.565,130.289 174.092 C 130.380 173.619,130.380 172.844,130.289 172.371 C 130.198 171.898,130.123 172.285,130.123 173.231 M107.973 175.143 C 107.973 176.931,108.039 177.663,108.119 176.769 C 108.200 175.875,108.200 174.412,108.119 173.518 C 108.039 172.624,107.973 173.356,107.973 175.143 M166.840 174.570 C 166.843 175.621,166.917 176.006,167.005 175.425 C 167.093 174.844,167.090 173.983,167.000 173.513 C 166.909 173.043,166.837 173.518,166.840 174.570 M353.082 175.335 C 353.084 176.597,353.156 177.067,353.241 176.379 C 353.326 175.692,353.324 174.660,353.237 174.085 C 353.150 173.510,353.080 174.073,353.082 175.335 M294.191 176.099 C 294.193 177.361,294.265 177.832,294.350 177.144 C 294.435 176.457,294.433 175.424,294.346 174.850 C 294.259 174.275,294.189 174.837,294.191 176.099 M189.064 181.262 C 189.064 184.522,189.123 185.856,189.194 184.226 C 189.266 182.596,189.266 179.928,189.194 178.298 C 189.123 176.668,189.064 178.002,189.064 181.262 M375.316 188.719 C 375.316 196.080,375.367 199.038,375.430 195.291 C 375.492 191.544,375.492 185.521,375.429 181.906 C 375.367 178.292,375.315 181.358,375.316 188.719 M223.082 180.880 C 223.082 182.878,223.147 183.695,223.226 182.696 C 223.304 181.697,223.304 180.062,223.226 179.063 C 223.147 178.064,223.082 178.881,223.082 180.880 M129.805 188.528 C 129.805 194.522,129.858 196.974,129.923 193.977 C 129.987 190.980,129.987 186.076,129.923 183.078 C 129.858 180.081,129.805 182.533,129.805 188.528 M238.792 191.013 C 238.792 197.113,238.845 199.554,238.909 196.439 C 238.974 193.324,238.974 188.334,238.909 185.349 C 238.845 182.365,238.792 184.914,238.792 191.013 M282.389 193.117 C 282.389 200.163,282.441 203.045,282.504 199.522 C 282.567 195.999,282.567 190.234,282.504 186.711 C 282.441 183.188,282.389 186.071,282.389 193.117 M353.507 188.719 C 353.506 192.925,353.562 194.698,353.631 192.659 C 353.700 190.619,353.700 187.178,353.632 185.011 C 353.563 182.844,353.507 184.512,353.507 188.719 M316.027 188.528 C 316.027 192.208,316.085 193.714,316.155 191.874 C 316.225 190.033,316.225 187.022,316.155 185.182 C 316.085 183.341,316.027 184.847,316.027 188.528 M189.063 195.985 C 189.064 199.140,189.123 200.379,189.195 198.740 C 189.267 197.100,189.266 194.519,189.194 193.004 C 189.121 191.488,189.063 192.830,189.063 195.985 M223.082 196.176 C 223.082 198.174,223.147 198.991,223.226 197.992 C 223.304 196.993,223.304 195.359,223.226 194.359 C 223.147 193.360,223.082 194.178,223.082 196.176 M294.191 200.956 C 294.193 202.218,294.265 202.688,294.350 202.001 C 294.435 201.313,294.433 200.281,294.346 199.706 C 294.259 199.132,294.189 199.694,294.191 200.956 M107.970 202.103 C 107.972 203.786,108.039 204.427,108.120 203.527 C 108.201 202.628,108.200 201.251,108.117 200.468 C 108.035 199.685,107.969 200.421,107.970 202.103 M353.082 202.103 C 353.084 203.365,353.156 203.835,353.241 203.148 C 353.326 202.461,353.324 201.428,353.237 200.854 C 353.150 200.279,353.080 200.841,353.082 202.103 M166.840 202.868 C 166.843 203.920,166.917 204.305,167.005 203.723 C 167.093 203.142,167.090 202.282,167.000 201.811 C 166.909 201.341,166.837 201.816,166.840 202.868 M201.273 203.633 C 201.274 205.105,201.344 205.661,201.426 204.867 C 201.509 204.074,201.508 202.869,201.423 202.190 C 201.339 201.511,201.271 202.161,201.273 203.633 M130.123 204.207 C 130.123 205.153,130.198 205.540,130.289 205.067 C 130.380 204.594,130.380 203.819,130.289 203.346 C 130.198 202.873,130.123 203.260,130.123 204.207 M374.876 207.648 C 374.876 208.805,374.947 209.278,375.035 208.700 C 375.123 208.121,375.123 207.175,375.035 206.597 C 374.947 206.018,374.876 206.491,374.876 207.648 M108.331 208.604 C 108.334 209.656,108.408 210.041,108.496 209.459 C 108.584 208.878,108.582 208.018,108.491 207.547 C 108.400 207.077,108.328 207.553,108.331 208.604 M188.624 208.987 C 188.628 209.828,188.707 210.127,188.798 209.651 C 188.890 209.176,188.886 208.487,188.790 208.122 C 188.695 207.756,188.620 208.145,188.624 208.987 M188.234 213.002 C 188.234 213.738,188.313 214.039,188.409 213.671 C 188.505 213.303,188.505 212.701,188.409 212.333 C 188.313 211.965,188.234 212.266,188.234 213.002 M147.521 224.751 C 148.209 224.836,149.241 224.835,149.816 224.747 C 150.390 224.660,149.828 224.591,148.566 224.593 C 147.304 224.595,146.834 224.666,147.521 224.751 M240.631 224.748 C 241.209 224.836,242.156 224.836,242.734 224.748 C 243.313 224.660,242.839 224.589,241.683 224.589 C 240.526 224.589,240.053 224.660,240.631 224.748 M333.754 224.751 C 334.442 224.836,335.474 224.835,336.049 224.747 C 336.624 224.660,336.061 224.591,334.799 224.593 C 333.537 224.595,333.067 224.666,333.754 224.751 M212.428 234.799 C 213.250 235.641,214.008 236.329,214.113 236.329 C 214.218 236.329,213.632 235.641,212.811 234.799 C 211.989 233.958,211.231 233.270,211.126 233.270 C 211.021 233.270,211.607 233.958,212.428 234.799 M363.651 235.086 L 362.333 236.520 363.767 235.202 C 365.101 233.976,365.377 233.652,365.085 233.652 C 365.021 233.652,364.375 234.297,363.651 235.086 M269.960 235.468 L 268.642 236.902 270.076 235.585 C 271.411 234.358,271.686 234.034,271.394 234.034 C 271.330 234.034,270.685 234.680,269.960 235.468 M26.713 245.987 C 26.872 246.145,43.427 246.231,63.501 246.178 L 100.000 246.080 63.212 245.889 C 42.979 245.784,26.554 245.828,26.713 245.987 M82.490 263.383 L 103.987 263.486 104.118 266.829 L 104.250 270.172 104.228 266.730 L 104.207 263.289 82.600 263.284 L 60.994 263.279 82.490 263.383 M145.113 263.567 C 145.011 263.834,144.971 281.004,145.026 301.721 L 145.124 339.388 151.721 339.402 L 158.318 339.416 151.817 339.297 L 145.315 339.179 145.315 301.329 L 145.315 263.480 152.003 263.480 L 158.691 263.480 158.791 279.063 L 158.891 294.646 171.511 294.646 L 184.130 294.646 184.230 279.063 L 184.330 263.480 191.016 263.480 L 197.702 263.480 197.802 301.243 L 197.902 339.006 197.900 301.147 L 197.897 263.289 191.013 263.289 L 184.130 263.289 184.030 278.872 L 183.930 294.455 171.511 294.455 L 159.091 294.455 158.991 278.872 L 158.891 263.289 152.095 263.184 C 146.867 263.104,145.255 263.192,145.113 263.567 M236.033 263.383 L 260.020 263.486 260.139 269.984 L 260.257 276.483 260.243 269.886 L 260.229 263.289 236.138 263.284 L 212.046 263.280 236.033 263.383 M276.960 263.384 C 281.534 263.445,289.020 263.445,293.595 263.384 C 298.169 263.323,294.426 263.273,285.277 263.273 C 276.128 263.273,272.385 263.323,276.960 263.384 M331.643 301.243 L 331.740 339.388 355.618 339.487 C 368.752 339.541,379.627 339.455,379.787 339.295 C 379.946 339.136,369.244 339.051,356.004 339.107 L 331.931 339.208 331.931 301.347 L 331.931 263.486 356.119 263.384 L 380.306 263.283 355.925 263.190 L 331.545 263.098 331.643 301.243 M80.518 277.222 L 79.010 278.967 80.691 277.355 C 81.615 276.469,82.294 275.683,82.199 275.610 C 82.104 275.537,81.348 276.263,80.518 277.222 M287.306 276.003 C 289.790 276.069,293.748 276.069,296.102 276.002 C 298.456 275.935,296.424 275.881,291.587 275.881 C 286.750 275.881,284.823 275.936,287.306 276.003 M362.715 276.476 L 345.507 276.673 345.507 285.660 L 345.507 294.646 360.125 294.746 L 374.743 294.847 374.861 301.056 L 374.980 307.266 374.966 300.956 L 374.952 294.646 360.325 294.546 L 345.698 294.446 345.698 285.655 L 345.698 276.864 362.693 276.864 C 373.610 276.864,379.772 276.727,379.924 276.482 C 380.054 276.272,380.107 276.140,380.042 276.189 C 379.977 276.238,372.180 276.368,362.715 276.476 M234.156 276.768 C 238.955 276.829,246.699 276.829,251.365 276.768 C 256.030 276.707,252.103 276.658,242.639 276.658 C 233.174 276.658,229.357 276.708,234.156 276.768 M104.561 286.616 C 104.561 291.243,104.616 293.083,104.683 290.705 C 104.751 288.328,104.750 284.542,104.683 282.292 C 104.615 280.043,104.560 281.989,104.561 286.616 M75.314 282.122 L 73.996 283.556 75.430 282.239 C 76.765 281.012,77.040 280.688,76.748 280.688 C 76.684 280.688,76.039 281.334,75.314 282.122 M307.949 285.086 C 307.952 286.138,308.026 286.522,308.114 285.941 C 308.202 285.360,308.199 284.499,308.109 284.029 C 308.018 283.559,307.946 284.034,307.949 285.086 M70.148 286.902 L 69.025 288.145 70.268 287.022 C 71.426 285.975,71.686 285.660,71.391 285.660 C 71.325 285.660,70.766 286.219,70.148 286.902 M86.984 288.050 L 85.086 290.057 87.094 288.160 C 88.198 287.116,89.101 286.213,89.101 286.152 C 89.101 285.867,88.747 286.184,86.984 288.050 M320.930 287.189 C 320.930 287.925,321.009 288.227,321.105 287.859 C 321.201 287.490,321.201 286.888,321.105 286.520 C 321.009 286.152,320.930 286.453,320.930 287.189 M92.304 290.822 C 92.305 293.136,92.368 294.033,92.444 292.816 C 92.520 291.599,92.519 289.706,92.442 288.609 C 92.365 287.513,92.303 288.509,92.304 290.822 M64.245 292.352 C 63.316 293.298,62.642 294.073,62.747 294.073 C 62.852 294.073,63.698 293.298,64.627 292.352 C 65.556 291.405,66.230 290.631,66.125 290.631 C 66.020 290.631,65.174 291.405,64.245 292.352 M82.218 292.352 C 81.289 293.298,80.615 294.073,80.720 294.073 C 80.825 294.073,81.671 293.298,82.600 292.352 C 83.529 291.405,84.203 290.631,84.098 290.631 C 83.993 290.631,83.147 291.405,82.218 292.352 M232.766 294.741 C 236.801 294.803,243.512 294.803,247.680 294.741 C 251.848 294.680,248.547 294.629,240.344 294.629 C 232.141 294.629,228.731 294.679,232.766 294.741 M282.933 295.324 C 283.096 295.487,286.487 295.572,290.468 295.515 L 297.706 295.409 290.171 295.219 C 286.027 295.114,282.770 295.162,282.933 295.324 M255.222 301.147 C 255.222 304.512,255.281 305.838,255.352 304.093 C 255.423 302.348,255.422 299.594,255.351 297.974 C 255.279 296.354,255.221 297.782,255.222 301.147 M59.253 297.036 L 57.935 298.470 59.369 297.153 C 60.704 295.926,60.979 295.602,60.687 295.602 C 60.623 295.602,59.978 296.248,59.253 297.036 M77.037 297.228 L 75.526 298.853 77.151 297.341 C 78.663 295.935,78.952 295.602,78.663 295.602 C 78.600 295.602,77.869 296.334,77.037 297.228 M53.328 302.581 L 51.816 304.207 53.442 302.695 C 54.953 301.289,55.243 300.956,54.953 300.956 C 54.891 300.956,54.159 301.687,53.328 302.581 M71.128 302.677 C 70.199 303.623,69.525 304.398,69.630 304.398 C 69.736 304.398,70.582 303.623,71.511 302.677 C 72.439 301.730,73.113 300.956,73.008 300.956 C 72.903 300.956,72.057 301.730,71.128 302.677 M48.184 307.266 C 47.255 308.212,46.581 308.987,46.686 308.987 C 46.791 308.987,47.637 308.212,48.566 307.266 C 49.495 306.319,50.169 305.545,50.064 305.545 C 49.958 305.545,49.112 306.319,48.184 307.266 M104.111 307.553 C 103.700 308.676,103.710 308.724,104.218 308.053 C 104.704 307.411,104.992 306.310,104.673 306.310 C 104.614 306.310,104.361 306.869,104.111 307.553 M65.177 308.317 L 64.054 309.560 65.296 308.437 C 66.455 307.390,66.715 307.075,66.420 307.075 C 66.354 307.075,65.794 307.634,65.177 308.317 M184.124 323.327 L 184.130 339.388 190.822 339.403 L 197.514 339.417 190.922 339.298 L 184.330 339.179 184.223 323.222 L 184.117 307.266 184.124 323.327 M345.496 316.730 L 345.507 326.004 362.715 326.010 L 379.924 326.016 362.817 325.910 L 345.711 325.805 345.599 316.631 L 345.486 307.457 345.496 316.730 M158.875 323.518 C 158.875 332.247,158.925 335.817,158.986 331.453 C 159.048 327.089,159.048 319.947,158.986 315.583 C 158.925 311.219,158.875 314.790,158.875 323.518 M285.373 308.124 C 287.003 308.195,289.670 308.195,291.300 308.124 C 292.930 308.052,291.597 307.993,288.337 307.993 C 285.076 307.993,283.743 308.052,285.373 308.124 M42.809 312.333 L 41.491 313.767 42.925 312.449 C 44.260 311.222,44.535 310.899,44.243 310.899 C 44.179 310.899,43.534 311.544,42.809 312.333 M60.018 313.098 L 58.700 314.532 60.134 313.214 C 61.469 311.987,61.744 311.663,61.452 311.663 C 61.388 311.663,60.742 312.309,60.018 313.098 M37.838 316.922 L 36.520 318.356 37.954 317.038 C 39.289 315.811,39.564 315.488,39.272 315.488 C 39.208 315.488,38.563 316.133,37.838 316.922 M54.671 318.069 L 52.581 320.268 54.780 318.177 C 55.989 317.028,56.979 316.038,56.979 315.979 C 56.979 315.695,56.613 316.026,54.671 318.069 M31.913 322.467 L 30.402 324.092 32.027 322.580 C 32.921 321.749,33.652 321.017,33.652 320.955 C 33.652 320.666,33.319 320.955,31.913 322.467 M49.331 322.945 C 48.402 323.891,47.728 324.665,47.833 324.665 C 47.938 324.665,48.784 323.891,49.713 322.945 C 50.642 321.998,51.316 321.224,51.211 321.224 C 51.106 321.224,50.260 321.998,49.331 322.945 M317.208 324.665 C 317.535 325.296,317.888 325.813,317.993 325.813 C 318.098 325.813,317.917 325.296,317.591 324.665 C 317.265 324.034,316.912 323.518,316.806 323.518 C 316.701 323.518,316.882 324.034,317.208 324.665 M26.748 327.247 L 25.430 328.681 26.864 327.363 C 28.199 326.136,28.474 325.813,28.182 325.813 C 28.118 325.813,27.473 326.458,26.748 327.247 M242.725 326.097 L 260.020 326.203 260.139 332.700 L 260.257 339.198 260.243 332.601 L 260.229 326.004 242.830 325.998 L 225.430 325.992 242.725 326.097 M43.595 328.298 C 42.666 329.245,41.992 330.019,42.097 330.019 C 42.202 330.019,43.048 329.245,43.977 328.298 C 44.906 327.352,45.580 326.577,45.475 326.577 C 45.370 326.577,44.524 327.352,43.595 328.298 M20.827 332.792 L 18.929 334.799 20.937 332.902 C 22.041 331.858,22.945 330.954,22.945 330.894 C 22.945 330.609,22.590 330.926,20.827 332.792 M38.414 333.174 L 36.902 334.799 38.528 333.288 C 39.422 332.456,40.153 331.725,40.153 331.662 C 40.153 331.373,39.820 331.663,38.414 333.174 M32.672 338.528 L 31.549 339.771 32.792 338.647 C 33.950 337.600,34.210 337.285,33.915 337.285 C 33.849 337.285,33.290 337.844,32.672 338.528 M223.996 339.484 C 230.569 339.542,241.324 339.542,247.897 339.484 C 254.469 339.425,249.092 339.377,235.946 339.377 C 222.801 339.377,217.424 339.425,223.996 339.484 M272.371 339.482 C 274.211 339.552,277.223 339.552,279.063 339.482 C 280.903 339.412,279.398 339.354,275.717 339.354 C 272.036 339.354,270.531 339.412,272.371 339.482 M312.715 339.482 C 314.871 339.550,318.399 339.550,320.554 339.482 C 322.710 339.414,320.946 339.358,316.635 339.358 C 312.323 339.358,310.559 339.414,312.715 339.482 M23.805 344.049 C 24.173 344.146,24.775 344.146,25.143 344.049 C 25.511 343.953,25.210 343.875,24.474 343.875 C 23.738 343.875,23.437 343.953,23.805 344.049 M108.891 350.574 C 159.211 350.627,241.554 350.627,291.874 350.574 C 342.194 350.520,301.023 350.476,200.382 350.476 C 99.742 350.476,58.571 350.520,108.891 350.574 M108.891 356.692 C 159.211 356.746,241.554 356.746,291.874 356.692 C 342.194 356.639,301.023 356.595,200.382 356.595 C 99.742 356.595,58.571 356.639,108.891 356.692 " stroke="none" fill="#7b94b3" fill-rule="evenodd"></path><path id="path3" d="M108.891 25.526 C 159.211 25.579,241.554 25.579,291.874 25.526 C 342.194 25.472,301.023 25.429,200.382 25.429 C 99.742 25.429,58.571 25.472,108.891 25.526 M84.635 73.040 C 84.635 74.407,84.704 74.967,84.789 74.283 C 84.874 73.599,84.874 72.481,84.789 71.797 C 84.704 71.114,84.635 71.673,84.635 73.040 M110.661 77.247 C 110.661 79.665,110.723 80.655,110.799 79.446 C 110.875 78.236,110.875 76.257,110.799 75.048 C 110.723 73.838,110.661 74.828,110.661 77.247 M302.229 77.820 C 302.230 79.293,302.300 79.848,302.382 79.055 C 302.465 78.261,302.464 77.057,302.379 76.378 C 302.295 75.699,302.227 76.348,302.229 77.820 M84.635 81.453 C 84.635 82.820,84.704 83.380,84.789 82.696 C 84.874 82.012,84.874 80.894,84.789 80.210 C 84.704 79.527,84.635 80.086,84.635 81.453 M49.888 99.618 C 49.888 108.241,49.938 111.823,49.999 107.578 C 50.061 103.333,50.061 96.278,50.000 91.899 C 49.938 87.521,49.888 90.994,49.888 99.618 M289.992 96.941 C 289.993 98.413,290.062 98.968,290.145 98.175 C 290.228 97.382,290.227 96.177,290.142 95.498 C 290.058 94.819,289.990 95.468,289.992 96.941 M318.069 100.859 C 320.856 100.925,325.416 100.925,328.203 100.859 C 330.989 100.794,328.709 100.741,323.136 100.741 C 317.562 100.741,315.282 100.794,318.069 100.859 M375.248 173.996 C 375.248 174.943,375.322 175.330,375.413 174.857 C 375.504 174.383,375.504 173.609,375.413 173.136 C 375.322 172.663,375.248 173.050,375.248 173.996 M200.928 188.719 C 200.928 193.346,200.983 195.186,201.050 192.809 C 201.118 190.431,201.117 186.645,201.050 184.396 C 200.982 182.146,200.927 184.092,200.928 188.719 M223.089 188.528 C 223.089 190.946,223.151 191.936,223.227 190.727 C 223.303 189.517,223.303 187.538,223.227 186.329 C 223.151 185.120,223.089 186.109,223.089 188.528 M375.240 203.250 C 375.244 204.092,375.322 204.391,375.414 203.915 C 375.505 203.440,375.502 202.751,375.406 202.386 C 375.310 202.020,375.236 202.409,375.240 203.250 M99.977 235.373 C 99.977 241.262,100.030 243.618,100.095 240.608 C 100.160 237.598,100.159 232.780,100.095 229.900 C 100.030 227.021,99.977 229.484,99.977 235.373 M119.120 234.799 C 119.942 235.641,120.700 236.329,120.805 236.329 C 120.910 236.329,120.324 235.641,119.503 234.799 C 118.681 233.958,117.923 233.270,117.818 233.270 C 117.713 233.270,118.299 233.958,119.120 234.799 M305.163 234.608 C 305.876 235.344,306.546 235.946,306.651 235.946 C 306.756 235.946,306.258 235.344,305.545 234.608 C 304.831 233.872,304.162 233.270,304.056 233.270 C 303.951 233.270,304.449 233.872,305.163 234.608 M211.563 301.220 C 211.513 322.083,211.601 339.232,211.759 339.329 C 212.019 339.490,212.016 312.482,211.754 276.864 C 211.699 269.398,211.613 280.358,211.563 301.220 M104.526 275.717 C 104.526 277.294,104.594 277.940,104.676 277.151 C 104.759 276.362,104.759 275.072,104.676 274.283 C 104.594 273.494,104.526 274.140,104.526 275.717 M66.658 275.621 C 69.562 275.686,74.208 275.686,76.983 275.620 C 79.757 275.555,77.380 275.502,71.702 275.502 C 66.023 275.502,63.753 275.556,66.658 275.621 M92.265 296.367 C 92.265 297.314,92.339 297.701,92.430 297.228 C 92.522 296.754,92.522 295.980,92.430 295.507 C 92.339 295.033,92.265 295.421,92.265 296.367 M314.702 301.625 L 313.384 303.059 314.818 301.741 C 315.607 301.017,316.252 300.371,316.252 300.307 C 316.252 300.015,315.929 300.290,314.702 301.625 M104.877 304.207 C 104.881 305.048,104.959 305.347,105.051 304.871 C 105.142 304.396,105.139 303.707,105.043 303.342 C 104.947 302.976,104.872 303.365,104.877 304.207 " stroke="none" fill="#889cb5" fill-rule="evenodd"></path><path id="path4" d="M109.082 19.025 C 159.297 19.078,241.467 19.078,291.683 19.025 C 341.898 18.971,300.813 18.928,200.382 18.928 C 99.952 18.928,58.867 18.971,109.082 19.025 M365.180 36.998 L 363.862 38.432 365.296 37.114 C 366.631 35.888,366.906 35.564,366.614 35.564 C 366.550 35.564,365.905 36.209,365.180 36.998 M96.282 38.521 C 97.181 38.602,98.558 38.601,99.341 38.519 C 100.124 38.437,99.388 38.371,97.706 38.372 C 96.023 38.373,95.382 38.441,96.282 38.521 M134.407 65.201 C 134.407 79.713,134.454 85.594,134.512 78.270 C 134.570 70.946,134.570 59.072,134.512 51.884 C 134.454 44.696,134.406 50.688,134.407 65.201 M148.555 63.671 C 148.555 77.342,148.603 82.879,148.661 75.976 C 148.720 69.073,148.720 57.887,148.661 51.119 C 148.603 44.352,148.555 50.000,148.555 63.671 M200.566 77.247 C 200.566 98.384,200.613 107.032,200.669 96.463 C 200.726 85.894,200.726 68.599,200.669 58.031 C 200.613 47.462,200.566 56.109,200.566 77.247 M361.544 40.249 L 360.421 41.491 361.663 40.368 C 362.347 39.750,362.906 39.191,362.906 39.125 C 362.906 38.830,362.591 39.090,361.544 40.249 M377.417 43.117 L 376.099 44.551 377.533 43.233 C 378.868 42.006,379.143 41.683,378.851 41.683 C 378.787 41.683,378.142 42.328,377.417 43.117 M116.635 46.080 C 117.777 47.237,118.798 48.184,118.903 48.184 C 119.008 48.184,118.160 47.237,117.017 46.080 C 115.875 44.924,114.854 43.977,114.749 43.977 C 114.644 43.977,115.492 44.924,116.635 46.080 M354.660 46.367 L 353.537 47.610 354.780 46.487 C 355.464 45.869,356.023 45.310,356.023 45.244 C 356.023 44.949,355.707 45.209,354.660 46.367 M373.211 46.941 L 371.893 48.375 373.327 47.057 C 374.662 45.830,374.937 45.507,374.645 45.507 C 374.581 45.507,373.936 46.152,373.211 46.941 M52.835 48.009 C 52.194 49.415,52.316 49.715,53.009 48.437 C 53.332 47.840,53.526 47.280,53.438 47.192 C 53.351 47.105,53.079 47.472,52.835 48.009 M351.031 49.618 L 349.713 51.052 351.147 49.734 C 352.482 48.507,352.757 48.184,352.465 48.184 C 352.401 48.184,351.756 48.829,351.031 49.618 M369.574 50.191 L 368.451 51.434 369.694 50.311 C 370.378 49.693,370.937 49.134,370.937 49.068 C 370.937 48.773,370.621 49.033,369.574 50.191 M219.216 52.293 C 221.687 52.360,225.731 52.360,228.203 52.293 C 230.674 52.227,228.652 52.172,223.709 52.172 C 218.767 52.172,216.745 52.227,219.216 52.293 M214.696 61.568 C 214.696 66.511,214.751 68.533,214.817 66.061 C 214.884 63.590,214.884 59.546,214.817 57.075 C 214.751 54.603,214.696 56.625,214.696 61.568 M236.329 53.657 C 236.329 53.723,236.888 54.282,237.572 54.900 L 238.815 56.023 237.691 54.780 C 236.644 53.622,236.329 53.362,236.329 53.657 M344.148 55.736 L 342.830 57.170 344.264 55.852 C 345.599 54.626,345.874 54.302,345.582 54.302 C 345.518 54.302,344.872 54.947,344.148 55.736 M362.691 56.310 L 361.568 57.553 362.811 56.429 C 363.494 55.812,364.054 55.252,364.054 55.187 C 364.054 54.891,363.738 55.151,362.691 56.310 M340.129 59.369 L 339.006 60.612 340.249 59.489 C 340.932 58.871,341.491 58.312,341.491 58.246 C 341.491 57.950,341.176 58.211,340.129 59.369 M359.062 59.560 L 357.744 60.994 359.178 59.676 C 360.513 58.450,360.788 58.126,360.496 58.126 C 360.432 58.126,359.786 58.772,359.062 59.560 M253.269 61.185 C 253.269 62.342,253.341 62.815,253.429 62.237 C 253.516 61.659,253.516 60.712,253.429 60.134 C 253.341 59.555,253.269 60.029,253.269 61.185 M336.882 62.237 L 335.564 63.671 336.998 62.353 C 338.333 61.127,338.608 60.803,338.316 60.803 C 338.252 60.803,337.607 61.448,336.882 62.237 M355.425 62.811 L 354.302 64.054 355.545 62.930 C 356.228 62.313,356.788 61.753,356.788 61.688 C 356.788 61.392,356.472 61.652,355.425 62.811 M124.372 63.862 C 124.372 64.598,124.450 64.900,124.547 64.532 C 124.643 64.163,124.643 63.561,124.547 63.193 C 124.450 62.825,124.372 63.126,124.372 63.862 M26.960 65.392 C 27.286 66.023,27.639 66.539,27.744 66.539 C 27.849 66.539,27.669 66.023,27.342 65.392 C 27.016 64.761,26.663 64.245,26.558 64.245 C 26.453 64.245,26.634 64.761,26.960 65.392 M333.246 65.488 L 332.122 66.730 333.365 65.607 C 334.049 64.989,334.608 64.430,334.608 64.364 C 334.608 64.069,334.292 64.329,333.246 65.488 M352.366 65.488 L 351.243 66.730 352.486 65.607 C 353.169 64.989,353.728 64.430,353.728 64.364 C 353.728 64.069,353.413 64.329,352.366 65.488 M295.124 64.897 C 295.598 64.988,296.372 64.988,296.845 64.897 C 297.318 64.806,296.931 64.731,295.985 64.731 C 295.038 64.731,294.651 64.806,295.124 64.897 M84.999 67.304 C 84.999 68.250,85.074 68.638,85.165 68.164 C 85.256 67.691,85.256 66.917,85.165 66.444 C 85.074 65.970,84.999 66.358,84.999 67.304 M110.243 68.260 C 110.246 69.312,110.320 69.696,110.408 69.115 C 110.496 68.534,110.494 67.673,110.403 67.203 C 110.312 66.733,110.240 67.208,110.243 68.260 M252.084 68.719 C 251.518 70.563,251.792 70.837,252.390 69.025 C 252.642 68.261,252.774 67.561,252.683 67.470 C 252.593 67.379,252.323 67.941,252.084 68.719 M348.354 69.120 L 347.036 70.554 348.470 69.237 C 349.805 68.010,350.080 67.686,349.788 67.686 C 349.724 67.686,349.079 68.332,348.354 69.120 M70.525 77.055 C 70.525 81.472,70.581 83.227,70.649 80.954 C 70.717 78.682,70.716 75.068,70.648 72.924 C 70.580 70.779,70.525 72.639,70.525 77.055 M289.650 78.967 C 289.651 84.436,289.704 86.620,289.770 83.821 C 289.835 81.021,289.835 76.547,289.769 73.878 C 289.704 71.209,289.650 73.499,289.650 78.967 M302.232 72.658 C 302.232 74.235,302.299 74.880,302.382 74.092 C 302.464 73.303,302.464 72.012,302.382 71.224 C 302.299 70.435,302.232 71.080,302.232 72.658 M322.538 75.048 L 321.415 76.291 322.658 75.167 C 323.341 74.550,323.901 73.990,323.901 73.925 C 323.901 73.629,323.585 73.889,322.538 75.048 M341.276 75.430 L 340.153 76.673 341.396 75.550 C 342.079 74.932,342.639 74.373,342.639 74.307 C 342.639 74.012,342.323 74.272,341.276 75.430 M84.627 77.247 C 84.627 78.403,84.699 78.877,84.786 78.298 C 84.874 77.720,84.874 76.773,84.786 76.195 C 84.699 75.617,84.627 76.090,84.627 77.247 M247.016 77.533 L 245.698 78.967 247.132 77.650 C 248.467 76.423,248.742 76.099,248.450 76.099 C 248.386 76.099,247.741 76.745,247.016 77.533 M334.393 81.549 L 333.270 82.792 334.512 81.668 C 335.196 81.051,335.755 80.491,335.755 80.426 C 335.755 80.130,335.440 80.390,334.393 81.549 M312.025 84.417 L 310.707 85.851 312.141 84.533 C 313.476 83.306,313.751 82.983,313.459 82.983 C 313.395 82.983,312.750 83.628,312.025 84.417 M330.951 84.608 L 329.828 85.851 331.071 84.728 C 331.754 84.110,332.314 83.551,332.314 83.485 C 332.314 83.189,331.998 83.450,330.951 84.608 M36.504 99.809 C 36.504 108.537,36.554 112.108,36.615 107.744 C 36.677 103.380,36.677 96.238,36.615 91.874 C 36.554 87.510,36.504 91.080,36.504 99.809 M217.704 84.415 C 219.344 84.486,221.925 84.486,223.440 84.414 C 224.955 84.341,223.614 84.282,220.459 84.283 C 217.304 84.283,216.064 84.343,217.704 84.415 M110.243 86.233 C 110.246 87.285,110.320 87.670,110.408 87.088 C 110.496 86.507,110.494 85.647,110.403 85.176 C 110.312 84.706,110.240 85.182,110.243 86.233 M214.706 100.191 C 214.706 108.709,214.756 112.194,214.818 107.935 C 214.879 103.676,214.879 96.707,214.818 92.447 C 214.756 88.188,214.706 91.673,214.706 100.191 M84.991 86.998 C 84.996 87.839,85.074 88.139,85.165 87.663 C 85.257 87.187,85.253 86.499,85.158 86.133 C 85.062 85.768,84.987 86.157,84.991 86.998 M326.939 88.241 L 325.621 89.675 327.055 88.357 C 328.390 87.130,328.665 86.807,328.373 86.807 C 328.309 86.807,327.664 87.452,326.939 88.241 M305.142 90.535 L 303.824 91.969 305.258 90.652 C 306.593 89.425,306.868 89.101,306.576 89.101 C 306.512 89.101,305.867 89.747,305.142 90.535 M70.834 90.631 C 70.834 91.367,70.913 91.668,71.009 91.300 C 71.105 90.932,71.105 90.330,71.009 89.962 C 70.913 89.594,70.834 89.895,70.834 90.631 M124.372 90.631 C 124.372 91.367,124.450 91.668,124.547 91.300 C 124.643 90.932,124.643 90.330,124.547 89.962 C 124.450 89.594,124.372 89.895,124.372 90.631 M324.068 90.727 L 322.945 91.969 324.187 90.846 C 324.871 90.228,325.430 89.669,325.430 89.603 C 325.430 89.308,325.115 89.568,324.068 90.727 M245.698 93.308 C 246.024 93.939,246.377 94.455,246.482 94.455 C 246.588 94.455,246.407 93.939,246.080 93.308 C 245.754 92.677,245.401 92.161,245.296 92.161 C 245.191 92.161,245.372 92.677,245.698 93.308 M232.914 99.618 C 232.914 99.828,233.160 100.430,233.461 100.956 C 233.761 101.482,234.007 101.740,234.007 101.530 C 234.007 101.319,233.761 100.717,233.461 100.191 C 233.160 99.665,232.914 99.407,232.914 99.618 M290.012 103.824 C 290.013 106.348,290.075 107.331,290.150 106.008 C 290.225 104.685,290.224 102.620,290.148 101.419 C 290.073 100.218,290.011 101.300,290.012 103.824 M338.536 107.075 C 338.536 108.021,338.611 108.408,338.702 107.935 C 338.793 107.462,338.793 106.687,338.702 106.214 C 338.611 105.741,338.536 106.128,338.536 107.075 M116.802 108.317 L 115.679 109.560 116.922 108.437 C 118.080 107.390,118.340 107.075,118.045 107.075 C 117.979 107.075,117.420 107.634,116.802 108.317 M300.888 113.480 C 306.844 113.539,316.481 113.539,322.302 113.480 C 328.124 113.420,323.250 113.372,311.472 113.372 C 299.694 113.372,294.931 113.420,300.888 113.480 M96.263 116.146 C 96.942 116.230,98.146 116.232,98.940 116.149 C 99.733 116.066,99.178 115.997,97.706 115.995 C 96.233 115.994,95.584 116.061,96.263 116.146 M160.144 116.150 C 161.043 116.231,162.420 116.230,163.203 116.148 C 163.986 116.066,163.250 116.000,161.568 116.001 C 159.885 116.002,159.245 116.070,160.144 116.150 M146.572 130.302 C 147.789 130.378,149.682 130.378,150.779 130.301 C 151.875 130.224,150.880 130.161,148.566 130.162 C 146.252 130.163,145.355 130.226,146.572 130.302 M239.880 130.302 C 241.097 130.378,242.990 130.378,244.087 130.301 C 245.183 130.224,244.187 130.161,241.874 130.162 C 239.560 130.163,238.663 130.226,239.880 130.302 M332.806 130.302 C 334.023 130.378,335.916 130.378,337.012 130.301 C 338.109 130.224,337.113 130.161,334.799 130.162 C 332.486 130.163,331.589 130.226,332.806 130.302 M26.190 188.719 C 26.190 220.478,26.235 233.527,26.291 217.716 C 26.346 201.906,26.346 175.921,26.291 159.973 C 26.235 144.024,26.190 156.960,26.190 188.719 M259.656 134.015 C 259.656 134.120,260.172 134.473,260.803 134.799 C 261.434 135.126,261.950 135.306,261.950 135.201 C 261.950 135.096,261.434 134.743,260.803 134.417 C 260.172 134.091,259.656 133.910,259.656 134.015 M269.407 141.109 C 270.656 142.371,271.764 143.403,271.869 143.403 C 271.974 143.403,271.038 142.371,269.790 141.109 C 268.541 139.847,267.433 138.815,267.328 138.815 C 267.223 138.815,268.158 139.847,269.407 141.109 M177.247 141.874 C 178.282 142.925,179.216 143.786,179.321 143.786 C 179.426 143.786,178.665 142.925,177.629 141.874 C 176.593 140.822,175.660 139.962,175.555 139.962 C 175.449 139.962,176.211 140.822,177.247 141.874 M363.273 141.587 C 364.210 142.586,365.028 143.403,365.089 143.403 C 365.376 143.403,365.073 143.060,363.384 141.475 L 361.568 139.771 363.273 141.587 M119.485 141.969 L 117.973 143.595 119.598 142.083 C 121.110 140.677,121.399 140.344,121.110 140.344 C 121.048 140.344,120.316 141.076,119.485 141.969 M212.620 142.065 C 211.691 143.011,211.017 143.786,211.122 143.786 C 211.227 143.786,212.073 143.011,213.002 142.065 C 213.931 141.119,214.605 140.344,214.500 140.344 C 214.394 140.344,213.548 141.119,212.620 142.065 M305.336 142.352 L 303.824 143.977 305.449 142.465 C 306.961 141.060,307.250 140.727,306.961 140.727 C 306.898 140.727,306.167 141.458,305.336 142.352 M147.142 153.244 C 148.041 153.325,149.418 153.324,150.201 153.242 C 150.984 153.159,150.249 153.093,148.566 153.095 C 146.883 153.096,146.243 153.163,147.142 153.244 M240.067 153.244 C 240.967 153.325,242.344 153.324,243.127 153.242 C 243.910 153.159,243.174 153.093,241.491 153.095 C 239.809 153.096,239.168 153.163,240.067 153.244 M333.375 153.244 C 334.275 153.325,335.651 153.324,336.435 153.242 C 337.218 153.159,336.482 153.093,334.799 153.095 C 333.117 153.096,332.476 153.163,333.375 153.244 M229.043 158.222 L 227.725 159.656 229.159 158.338 C 230.493 157.111,230.769 156.788,230.477 156.788 C 230.413 156.788,229.767 157.433,229.043 158.222 M374.857 165.392 C 374.862 166.233,374.940 166.532,375.031 166.057 C 375.123 165.581,375.119 164.893,375.024 164.527 C 374.928 164.161,374.853 164.551,374.857 165.392 M201.257 168.069 C 201.259 169.120,201.334 169.505,201.422 168.924 C 201.510 168.343,201.507 167.482,201.416 167.012 C 201.326 166.542,201.254 167.017,201.257 168.069 M107.936 169.598 C 107.940 170.440,108.018 170.739,108.110 170.263 C 108.201 169.788,108.198 169.099,108.102 168.734 C 108.006 168.368,107.932 168.757,107.936 169.598 M375.262 170.363 C 375.264 171.625,375.335 172.095,375.421 171.408 C 375.506 170.721,375.504 169.688,375.417 169.114 C 375.329 168.539,375.260 169.101,375.262 170.363 M265.129 168.929 C 268.455 168.992,273.789 168.992,276.984 168.928 C 280.178 168.864,277.457 168.812,270.937 168.812 C 264.417 168.813,261.803 168.865,265.129 168.929 M294.182 171.128 C 294.185 172.180,294.259 172.565,294.347 171.983 C 294.435 171.402,294.433 170.542,294.342 170.071 C 294.251 169.601,294.179 170.076,294.182 171.128 M189.020 172.275 C 189.022 173.327,189.097 173.712,189.185 173.130 C 189.272 172.549,189.270 171.689,189.179 171.218 C 189.089 170.748,189.017 171.224,189.020 172.275 M316.744 172.275 C 316.747 173.327,316.821 173.712,316.909 173.130 C 316.997 172.549,316.995 171.689,316.904 171.218 C 316.813 170.748,316.741 171.224,316.744 172.275 M166.452 173.231 C 166.452 174.178,166.527 174.565,166.618 174.092 C 166.709 173.619,166.709 172.844,166.618 172.371 C 166.527 171.898,166.452 172.285,166.452 173.231 M200.908 176.482 C 200.909 178.795,200.972 179.693,201.048 178.476 C 201.124 177.258,201.123 175.366,201.046 174.269 C 200.969 173.172,200.907 174.168,200.908 176.482 M223.416 174.761 C 223.416 175.497,223.494 175.798,223.591 175.430 C 223.687 175.062,223.687 174.460,223.591 174.092 C 223.494 173.724,223.416 174.025,223.416 174.761 M293.862 188.528 C 293.862 195.784,293.914 198.752,293.976 195.124 C 294.039 191.496,294.039 185.559,293.976 181.931 C 293.914 178.303,293.862 181.272,293.862 188.528 M316.375 177.820 C 316.375 179.187,316.444 179.747,316.529 179.063 C 316.614 178.380,316.614 177.261,316.529 176.577 C 316.444 175.894,316.375 176.453,316.375 177.820 M130.161 180.497 C 130.161 182.706,130.224 183.609,130.301 182.505 C 130.378 181.401,130.378 179.594,130.301 178.489 C 130.224 177.385,130.161 178.289,130.161 180.497 M166.899 188.719 C 166.899 194.608,166.952 196.964,167.016 193.954 C 167.081 190.944,167.081 186.126,167.016 183.246 C 166.951 180.367,166.898 182.830,166.899 188.719 M353.129 188.719 C 353.129 193.977,353.183 196.181,353.249 193.617 C 353.315 191.053,353.315 186.751,353.250 184.057 C 353.184 181.363,353.130 183.461,353.129 188.719 M249.590 180.019 C 255.517 180.078,265.326 180.078,271.388 180.019 C 277.450 179.960,272.600 179.911,260.612 179.911 C 248.623 179.911,243.664 179.960,249.590 180.019 M107.621 188.719 C 107.621 193.556,107.676 195.483,107.743 192.999 C 107.809 190.516,107.809 186.558,107.742 184.204 C 107.675 181.850,107.621 183.881,107.621 188.719 M375.648 188.528 C 375.648 189.895,375.718 190.454,375.802 189.771 C 375.887 189.087,375.887 187.968,375.802 187.285 C 375.718 186.601,375.648 187.161,375.648 188.528 M130.161 196.941 C 130.161 199.149,130.224 200.053,130.301 198.948 C 130.378 197.844,130.378 196.037,130.301 194.933 C 130.224 193.829,130.161 194.732,130.161 196.941 M200.906 200.765 C 200.906 202.973,200.969 203.877,201.047 202.772 C 201.124 201.668,201.124 199.861,201.047 198.757 C 200.969 197.653,200.906 198.556,200.906 200.765 M316.375 199.618 C 316.375 200.985,316.444 201.544,316.529 200.860 C 316.614 200.177,316.614 199.058,316.529 198.375 C 316.444 197.691,316.375 198.250,316.375 199.618 M223.416 202.677 C 223.416 203.413,223.494 203.714,223.591 203.346 C 223.687 202.978,223.687 202.376,223.591 202.008 C 223.494 201.640,223.416 201.941,223.416 202.677 M249.500 202.196 L 259.995 202.306 260.145 203.735 L 260.295 205.163 260.262 203.633 L 260.229 202.103 249.617 202.094 L 239.005 202.085 249.500 202.196 M166.452 204.207 C 166.452 205.153,166.527 205.540,166.618 205.067 C 166.709 204.594,166.709 203.819,166.618 203.346 C 166.527 202.873,166.452 203.260,166.452 204.207 M189.020 205.163 C 189.022 206.214,189.097 206.599,189.185 206.018 C 189.272 205.436,189.270 204.576,189.179 204.106 C 189.089 203.635,189.017 204.111,189.020 205.163 M316.739 204.971 C 316.739 205.918,316.814 206.305,316.905 205.832 C 316.996 205.359,316.996 204.584,316.905 204.111 C 316.814 203.638,316.739 204.025,316.739 204.971 M294.182 206.310 C 294.185 207.361,294.259 207.746,294.347 207.165 C 294.435 206.584,294.433 205.723,294.342 205.253 C 294.251 204.783,294.179 205.258,294.182 206.310 M375.262 206.692 C 375.264 207.954,375.335 208.424,375.421 207.737 C 375.506 207.050,375.504 206.017,375.417 205.442 C 375.329 204.868,375.260 205.430,375.262 206.692 M107.928 207.648 C 107.928 208.384,108.007 208.685,108.103 208.317 C 108.199 207.949,108.199 207.347,108.103 206.979 C 108.007 206.611,107.928 206.912,107.928 207.648 M201.257 208.987 C 201.259 210.038,201.334 210.423,201.422 209.842 C 201.510 209.260,201.507 208.400,201.416 207.930 C 201.326 207.459,201.254 207.935,201.257 208.987 M282.322 209.178 C 282.322 210.124,282.397 210.511,282.488 210.038 C 282.579 209.565,282.579 208.791,282.488 208.317 C 282.397 207.844,282.322 208.231,282.322 209.178 M374.857 212.046 C 374.862 212.887,374.940 213.186,375.031 212.711 C 375.123 212.235,375.119 211.547,375.024 211.181 C 374.928 210.815,374.853 211.205,374.857 212.046 M156.310 222.398 C 154.880 223.174,154.967 223.497,156.405 222.753 C 157.036 222.427,157.553 222.078,157.553 221.979 C 157.553 221.733,157.511 221.747,156.310 222.398 M232.887 221.969 C 232.887 222.074,233.403 222.427,234.034 222.753 C 234.665 223.080,235.182 223.261,235.182 223.155 C 235.182 223.050,234.665 222.697,234.034 222.371 C 233.403 222.045,232.887 221.864,232.887 221.969 M342.543 222.398 C 341.113 223.174,341.200 223.497,342.639 222.753 C 343.270 222.427,343.786 222.078,343.786 221.979 C 343.786 221.733,343.745 221.747,342.543 222.398 M57.935 224.371 C 81.760 224.635,100.191 224.639,100.191 224.379 C 100.191 224.221,88.619 224.132,74.474 224.180 C 60.330 224.229,52.887 224.315,57.935 224.371 M147.123 224.368 C 147.802 224.452,149.007 224.454,149.800 224.371 C 150.594 224.288,150.038 224.219,148.566 224.217 C 147.094 224.216,146.445 224.283,147.123 224.368 M240.249 224.370 C 241.037 224.453,242.328 224.453,243.117 224.370 C 243.905 224.288,243.260 224.220,241.683 224.220 C 240.105 224.220,239.460 224.288,240.249 224.370 M333.357 224.368 C 334.036 224.452,335.240 224.454,336.034 224.371 C 336.827 224.288,336.272 224.219,334.799 224.217 C 333.327 224.216,332.678 224.283,333.357 224.368 M211.090 233.772 C 211.090 233.837,211.649 234.397,212.333 235.014 L 213.576 236.138 212.452 234.895 C 211.405 233.736,211.090 233.476,211.090 233.772 M270.148 235.660 L 269.025 236.902 270.268 235.779 C 270.951 235.162,271.511 234.602,271.511 234.536 C 271.511 234.241,271.195 234.501,270.148 235.660 M147.706 247.300 C 148.074 247.396,148.676 247.396,149.044 247.300 C 149.412 247.204,149.111 247.125,148.375 247.125 C 147.639 247.125,147.337 247.204,147.706 247.300 M241.209 247.307 C 241.685 247.398,242.373 247.395,242.739 247.299 C 243.104 247.203,242.715 247.129,241.874 247.133 C 241.033 247.137,240.733 247.215,241.209 247.307 M334.134 247.307 C 334.610 247.398,335.298 247.395,335.664 247.299 C 336.030 247.203,335.641 247.129,334.799 247.133 C 333.958 247.137,333.659 247.215,334.134 247.307 M71.770 263.002 C 77.697 263.061,87.506 263.061,93.567 263.002 C 99.629 262.943,94.780 262.894,82.792 262.894 C 70.803 262.894,65.843 262.942,71.770 263.002 M148.490 263.000 C 150.552 263.069,153.821 263.069,155.756 263.000 C 157.691 262.931,156.004 262.874,152.008 262.875 C 148.011 262.875,146.429 262.932,148.490 263.000 M187.496 263.000 C 189.558 263.069,192.827 263.069,194.762 263.000 C 196.696 262.931,195.010 262.874,191.013 262.875 C 187.017 262.875,185.434 262.932,187.496 263.000 M211.722 263.002 C 211.561 263.262,229.007 263.259,251.816 262.994 C 256.654 262.937,249.652 262.852,236.256 262.803 C 222.860 262.755,211.820 262.844,211.722 263.002 M268.627 263.193 C 268.527 263.456,268.491 280.707,268.546 301.530 L 268.646 339.388 268.740 301.247 L 268.834 263.106 284.990 263.002 L 301.147 262.898 284.978 262.806 C 272.328 262.735,268.770 262.819,268.627 263.193 M355.919 263.000 L 380.097 263.103 380.215 269.888 L 380.332 276.673 380.319 269.790 L 380.306 262.906 356.023 262.902 L 331.740 262.898 355.919 263.000 M104.546 268.260 C 104.547 270.994,104.608 272.063,104.682 270.634 C 104.755 269.206,104.755 266.969,104.680 265.663 C 104.606 264.357,104.546 265.526,104.546 268.260 M183.731 278.967 C 183.731 287.591,183.781 291.173,183.843 286.928 C 183.904 282.683,183.904 275.628,183.843 271.249 C 183.781 266.871,183.731 270.344,183.731 278.967 M57.529 265.105 L 56.405 266.348 57.648 265.225 C 58.807 264.178,59.067 263.862,58.771 263.862 C 58.706 263.862,58.146 264.422,57.529 265.105 M55.928 269.407 C 55.932 270.249,56.011 270.548,56.102 270.072 C 56.194 269.596,56.190 268.908,56.094 268.542 C 55.999 268.177,55.924 268.566,55.928 269.407 M79.924 277.438 C 78.995 278.384,78.321 279.159,78.426 279.159 C 78.531 279.159,79.377 278.384,80.306 277.438 C 81.235 276.491,81.909 275.717,81.804 275.717 C 81.698 275.717,80.852 276.491,79.924 277.438 M282.772 276.585 C 282.670 276.853,282.632 281.112,282.689 286.050 L 282.792 295.029 290.822 295.041 L 298.853 295.053 290.918 294.938 L 282.983 294.822 282.983 285.659 L 282.983 276.496 291.874 276.386 L 300.765 276.276 291.862 276.188 C 284.950 276.119,282.917 276.208,282.772 276.585 M74.952 282.027 C 74.023 282.973,73.349 283.748,73.455 283.748 C 73.560 283.748,74.406 282.973,75.335 282.027 C 76.263 281.080,76.937 280.306,76.832 280.306 C 76.727 280.306,75.881 281.080,74.952 282.027 M321.352 285.277 C 321.352 286.855,321.420 287.500,321.502 286.711 C 321.585 285.923,321.585 284.632,321.502 283.843 C 321.420 283.054,321.352 283.700,321.352 285.277 M87.954 287.380 C 87.025 288.327,86.351 289.101,86.456 289.101 C 86.562 289.101,87.408 288.327,88.337 287.380 C 89.265 286.434,89.939 285.660,89.834 285.660 C 89.729 285.660,88.883 286.434,87.954 287.380 M68.834 287.763 C 67.905 288.709,67.231 289.484,67.336 289.484 C 67.441 289.484,68.287 288.709,69.216 287.763 C 70.145 286.816,70.819 286.042,70.714 286.042 C 70.609 286.042,69.763 286.816,68.834 287.763 M82.600 292.352 C 81.671 293.298,80.998 294.073,81.103 294.073 C 81.208 294.073,82.054 293.298,82.983 292.352 C 83.912 291.405,84.586 290.631,84.480 290.631 C 84.375 290.631,83.529 291.405,82.600 292.352 M62.882 293.403 L 61.759 294.646 63.002 293.523 C 64.160 292.476,64.421 292.161,64.125 292.161 C 64.059 292.161,63.500 292.720,62.882 293.403 M104.931 297.706 C 104.932 300.650,104.992 301.804,105.064 300.270 C 105.137 298.736,105.137 296.327,105.063 294.916 C 104.990 293.506,104.930 294.761,104.931 297.706 M375.301 300.956 C 375.301 304.637,375.358 306.142,375.428 304.302 C 375.498 302.462,375.498 299.450,375.428 297.610 C 375.358 295.770,375.301 297.275,375.301 300.956 M77.037 297.610 L 75.526 299.235 77.151 297.724 C 78.663 296.318,78.952 295.985,78.663 295.985 C 78.600 295.985,77.869 296.716,77.037 297.610 M58.106 297.801 L 56.788 299.235 58.222 297.917 C 59.557 296.691,59.832 296.367,59.540 296.367 C 59.476 296.367,58.830 297.012,58.106 297.801 M92.302 301.721 C 92.302 303.929,92.365 304.833,92.443 303.728 C 92.520 302.624,92.520 300.817,92.443 299.713 C 92.365 298.609,92.302 299.512,92.302 301.721 M71.497 302.772 L 69.407 304.971 71.606 302.881 C 72.815 301.732,73.805 300.742,73.805 300.682 C 73.805 300.398,73.439 300.730,71.497 302.772 M52.567 302.964 L 50.669 304.971 52.677 303.074 C 53.781 302.030,54.685 301.126,54.685 301.066 C 54.685 300.781,54.330 301.098,52.567 302.964 M66.539 307.266 C 65.610 308.212,64.936 308.987,65.042 308.987 C 65.147 308.987,65.993 308.212,66.922 307.266 C 67.850 306.319,68.524 305.545,68.419 305.545 C 68.314 305.545,67.468 306.319,66.539 307.266 M47.419 307.648 C 46.490 308.595,45.816 309.369,45.921 309.369 C 46.026 309.369,46.872 308.595,47.801 307.648 C 48.730 306.702,49.404 305.927,49.299 305.927 C 49.194 305.927,48.348 306.702,47.419 307.648 M171.219 307.744 L 183.548 307.850 183.652 323.428 L 183.756 339.006 183.848 323.231 L 183.939 307.457 171.415 307.547 L 158.891 307.637 171.219 307.744 M232.766 307.743 C 236.801 307.805,243.512 307.805,247.680 307.743 C 251.848 307.682,248.547 307.631,240.344 307.631 C 232.141 307.631,228.731 307.681,232.766 307.743 M352.868 307.743 C 356.917 307.805,363.542 307.805,367.591 307.743 C 371.640 307.681,368.327 307.631,360.229 307.631 C 352.132 307.631,348.819 307.681,352.868 307.743 M282.775 324.092 C 282.775 332.715,282.825 336.297,282.887 332.052 C 282.948 327.807,282.948 320.752,282.887 316.374 C 282.825 311.995,282.775 315.468,282.775 324.092 M310.325 310.516 C 310.651 311.147,311.004 311.663,311.110 311.663 C 311.215 311.663,311.034 311.147,310.707 310.516 C 310.381 309.885,310.028 309.369,309.923 309.369 C 309.818 309.369,309.999 309.885,310.325 310.516 M42.242 312.524 L 40.344 314.532 42.352 312.634 C 43.456 311.590,44.359 310.687,44.359 310.626 C 44.359 310.341,44.005 310.658,42.242 312.524 M61.353 312.141 L 60.229 313.384 61.472 312.261 C 62.631 311.214,62.891 310.899,62.595 310.899 C 62.530 310.899,61.970 311.458,61.353 312.141 M97.992 311.545 C 98.360 311.641,98.963 311.641,99.331 311.545 C 99.699 311.448,99.398 311.370,98.662 311.370 C 97.925 311.370,97.624 311.448,97.992 311.545 M312.237 314.340 C 312.563 314.971,312.916 315.488,313.022 315.488 C 313.127 315.488,312.946 314.971,312.620 314.340 C 312.293 313.709,311.940 313.193,311.835 313.193 C 311.730 313.193,311.911 313.709,312.237 314.340 M55.449 317.591 C 54.520 318.537,53.846 319.312,53.952 319.312 C 54.057 319.312,54.903 318.537,55.832 317.591 C 56.761 316.644,57.435 315.870,57.329 315.870 C 57.224 315.870,56.378 316.644,55.449 317.591 M36.329 317.973 C 35.400 318.920,34.726 319.694,34.831 319.694 C 34.936 319.694,35.782 318.920,36.711 317.973 C 37.640 317.027,38.314 316.252,38.209 316.252 C 38.104 316.252,37.258 317.027,36.329 317.973 M31.344 322.658 L 29.254 324.857 31.453 322.766 C 32.663 321.617,33.652 320.627,33.652 320.568 C 33.652 320.284,33.286 320.615,31.344 322.658 M50.096 322.562 C 49.167 323.509,48.493 324.283,48.598 324.283 C 48.703 324.283,49.549 323.509,50.478 322.562 C 51.407 321.616,52.081 320.841,51.976 320.841 C 51.871 320.841,51.024 321.616,50.096 322.562 M234.130 325.717 C 238.915 325.777,246.745 325.777,251.530 325.717 C 256.315 325.656,252.400 325.606,242.830 325.606 C 233.260 325.606,229.345 325.656,234.130 325.717 M362.802 325.715 L 380.097 325.820 380.215 332.604 L 380.332 339.388 380.319 332.505 L 380.306 325.621 362.906 325.615 L 345.507 325.609 362.802 325.715 M44.154 328.203 L 42.256 330.210 44.264 328.313 C 45.368 327.269,46.272 326.365,46.272 326.305 C 46.272 326.020,45.917 326.337,44.154 328.203 M25.601 328.011 L 24.283 329.446 25.717 328.128 C 26.506 327.403,27.151 326.758,27.151 326.694 C 27.151 326.402,26.827 326.677,25.601 328.011 M304.042 330.210 C 304.042 330.421,304.288 331.023,304.589 331.549 C 304.889 332.075,305.135 332.333,305.135 332.122 C 305.135 331.912,304.889 331.310,304.589 330.784 C 304.288 330.258,304.042 330.000,304.042 330.210 M39.183 332.792 L 37.285 334.799 39.293 332.902 C 40.397 331.858,41.300 330.954,41.300 330.894 C 41.300 330.609,40.946 330.926,39.183 332.792 M20.441 332.792 L 18.929 334.417 20.554 332.905 C 22.066 331.499,22.355 331.166,22.066 331.166 C 22.004 331.166,21.272 331.898,20.441 332.792 M33.825 337.763 L 32.314 339.388 33.939 337.877 C 34.833 337.045,35.564 336.314,35.564 336.251 C 35.564 335.962,35.231 336.251,33.825 337.763 M28.848 342.352 L 27.725 343.595 28.967 342.471 C 30.126 341.425,30.386 341.109,30.091 341.109 C 30.025 341.109,29.466 341.668,28.848 342.352 " stroke="none" fill="#a7b8ca" fill-rule="evenodd"></path></g></svg>